<svg width="190" height="50" viewBox="0 0 190 50" fill="none" xmlns="http://www.w3.org/2000/svg">
<path d="M11.014 26.1119L12.4566 23.7077L9.46899 22.2139L7.65731 24.4784C6.88623 25.4422 6.37486 26.5875 6.17194 27.805C5.88958 29.4992 6.21983 31.2385 7.1035 32.7113L7.97519 34.1641L7.22829 35.6579L13.2035 38.6455L12.4566 31.9235L10.9628 32.6704L10.3831 30.3516C10.272 29.9074 10.2159 29.4512 10.2159 28.9933C10.2159 27.9783 10.4918 26.9823 11.014 26.1119Z" fill="black" stroke="black" stroke-width="1.04566"/>
<path d="M19.8991 36.2903L17.0996 36.4462L17.5406 39.7572L20.4317 39.9851C21.6622 40.0822 22.897 39.8624 24.0185 39.3469C25.579 38.6294 26.833 37.3797 27.5558 35.8216L28.2687 34.2846L29.9242 34.0641L29.0422 27.4422L23.8986 31.8339L25.3553 32.6508L23.7618 34.4323C23.4566 34.7736 23.1106 35.0761 22.7317 35.3332C21.8916 35.903 20.9125 36.2338 19.8991 36.2903Z" fill="black" stroke="black" stroke-width="1.04566"/>
<path d="M18.4318 22.9605V21.4667L20.5435 21.8889C21.6016 22.1006 22.5734 22.6206 23.3365 23.3837C24.037 24.0841 24.5339 24.9618 24.7741 25.9229L25.1539 27.4418L28.1415 25.2011V25.0642C28.1415 24.1794 27.8796 23.3144 27.3888 22.5783L26.8938 21.8358C26.7301 21.5903 26.5426 21.3616 26.334 21.1529L24.407 19.2259C22.9459 18.2518 21.2292 17.7321 19.4733 17.7321H18.4318V16.2383L13.2035 19.9728L18.4318 22.9605Z" fill="black" stroke="black" stroke-width="1.04566"/>
<path d="M23.6601 5.03079V6.52884H28.9752C30.3366 6.52884 31.6241 7.14766 32.4745 8.21069L33.1346 9.03572C33.7703 9.83033 34.1166 10.8176 34.1166 11.8353V42.6028C34.1166 44.3502 33.3223 46.0029 31.9578 47.0946C30.9378 47.9105 29.6705 48.3551 28.3643 48.3551H7.86622C5.64426 48.3551 3.613 47.0997 2.61931 45.1123C2.21203 44.2977 2 43.3995 2 42.4888V10.4396C2 9.83243 2.14136 9.23363 2.41289 8.6906C3.07534 7.36573 4.42947 6.52884 5.91072 6.52884H11.7097V5.2611C11.7097 4.62663 11.8975 4.00635 12.2494 3.47844C12.8455 2.58438 13.8489 2.04736 14.9234 2.04736H20.6766C21.1643 2.04736 21.6446 2.16693 22.0754 2.39559C23.0505 2.91316 23.6601 3.92686 23.6601 5.03079Z" stroke="black" stroke-width="2.24069"/>
<path d="M50.77 15.8167V14.0766H53.4273C53.8819 14.0766 54.266 14.0061 54.5795 13.865C54.9087 13.7239 55.1595 13.5279 55.332 13.2771C55.5044 13.0106 55.5907 12.6892 55.5907 12.313C55.5907 11.7486 55.4025 11.3253 55.0263 11.0432C54.65 10.761 54.117 10.6199 53.4273 10.6199H51.7812V20.9195H53.8035C54.3208 20.9195 54.7833 20.8568 55.1909 20.7314C55.5985 20.5903 55.9199 20.3708 56.155 20.073C56.4058 19.7594 56.5313 19.3362 56.5313 18.8032C56.5313 18.4583 56.4607 18.1604 56.3196 17.9096C56.1785 17.6587 55.9826 17.455 55.7317 17.2982C55.4809 17.1414 55.1909 17.0317 54.8617 16.969C54.5481 16.8906 54.1954 16.8514 53.8035 16.8514H50.77V14.688H54.2503C55.0498 14.688 55.8258 14.7742 56.5783 14.9467C57.3308 15.1191 58.0127 15.4013 58.6241 15.7932C59.2355 16.1695 59.7215 16.6554 60.082 17.2512C60.4583 17.8312 60.6464 18.5366 60.6464 19.3675C60.6464 20.4649 60.3799 21.3506 59.8469 22.0247C59.3296 22.6988 58.5928 23.2005 57.6365 23.5297C56.6802 23.8432 55.5515 24 54.2503 24H47.8071V7.5394H53.8505C54.9949 7.5394 55.9982 7.69616 56.8605 8.0097C57.7384 8.30756 58.4281 8.77002 58.9298 9.39709C59.4471 10.0085 59.7058 10.7845 59.7058 11.7251C59.7058 12.5873 59.4471 13.3241 58.9298 13.9355C58.4281 14.5469 57.7384 15.0172 56.8605 15.3464C55.9982 15.66 54.9949 15.8167 53.8505 15.8167H50.77ZM66.1303 20.8255L66.4125 17.792H74.5722L74.8309 20.8255H66.1303ZM70.4335 13.5828L68.1291 18.8972L68.3172 19.7673L66.2714 24H61.78L70.4335 6.50473L79.1106 24H74.5957L72.6205 19.9319L72.7615 18.9207L70.4335 13.5828ZM78.0014 11.0902V7.5394H91.0288V11.0902H86.4904V24H82.5164V11.0902H78.0014ZM92.3601 11.0902V7.5394H105.387V11.0902H100.849V24H96.875V11.0902H92.3601ZM111.768 16.5457H115.883L121.033 24H116.377L111.768 16.5457ZM107.653 7.5394H111.627V24H107.653V7.5394ZM110.145 10.9021V7.5394H113.649C115.06 7.5394 116.236 7.76671 117.177 8.22134C118.117 8.67596 118.83 9.31087 119.316 10.1261C119.802 10.9256 120.045 11.8583 120.045 12.9244C120.045 13.9747 119.802 14.9075 119.316 15.7227C118.83 16.5222 118.117 17.1493 117.177 17.6039C116.236 18.0585 115.06 18.2858 113.649 18.2858H110.145V15.2053H113.367C113.9 15.2053 114.355 15.127 114.731 14.9702C115.123 14.7977 115.421 14.5547 115.625 14.2412C115.828 13.912 115.93 13.5201 115.93 13.0655C115.93 12.6108 115.828 12.2267 115.625 11.9132C115.421 11.584 115.123 11.3332 114.731 11.1607C114.355 10.9883 113.9 10.9021 113.367 10.9021H110.145ZM125.977 24V20.7314H134.278V24H125.977ZM125.977 10.808V7.5394H134.278V10.808H125.977ZM125.977 16.9455V13.7474H133.808V16.9455H125.977ZM123.343 7.5394H127.153V24H123.343V7.5394ZM146.137 18.0507V14.9937H154.462C154.54 16.3105 154.407 17.5412 154.062 18.6856C153.717 19.83 153.184 20.8411 152.463 21.719C151.742 22.5969 150.84 23.2867 149.759 23.7884C148.677 24.2743 147.439 24.5173 146.043 24.5173C144.726 24.5173 143.519 24.3135 142.422 23.9059C141.325 23.4827 140.376 22.8869 139.577 22.1188C138.777 21.3349 138.15 20.41 137.695 19.344C137.256 18.2623 137.037 17.0709 137.037 15.7697C137.037 14.4685 137.264 13.2928 137.719 12.2424C138.174 11.1764 138.816 10.2672 139.647 9.51467C140.478 8.76218 141.45 8.18214 142.563 7.77455C143.676 7.36695 144.883 7.16315 146.184 7.16315C147.344 7.16315 148.387 7.32776 149.312 7.65697C150.237 7.98618 151.052 8.44865 151.758 9.04436C152.479 9.62441 153.098 10.2985 153.615 11.0667L150.088 12.9008C149.712 12.2424 149.202 11.7016 148.559 11.2783C147.932 10.8394 147.141 10.6199 146.184 10.6199C145.275 10.6199 144.436 10.8237 143.668 11.2313C142.916 11.6389 142.312 12.2267 141.858 12.9949C141.419 13.7474 141.199 14.6723 141.199 15.7697C141.199 16.8514 141.411 17.792 141.834 18.5915C142.273 19.3754 142.861 19.9867 143.598 20.4257C144.35 20.849 145.212 21.0606 146.184 21.0606C146.78 21.0606 147.321 20.9901 147.807 20.849C148.293 20.6922 148.708 20.4806 149.053 20.2141C149.398 19.9319 149.688 19.6105 149.923 19.2499C150.174 18.8737 150.37 18.4739 150.511 18.0507H146.137ZM160.229 24V20.7314H168.53V24H160.229ZM160.229 10.808V7.5394H168.53V10.808H160.229ZM160.229 16.9455V13.7474H168.059V16.9455H160.229ZM157.595 7.5394H161.404V24H157.595V7.5394ZM183.587 7.5394H187.42V24.823L176.039 14.735V24H172.229V6.71637L183.587 16.8044V7.5394Z" fill="#78A401"/>
<path d="M48.3158 43.9932V42.4443H53.5731V43.9932H48.3158ZM48.3158 35.117V33.5681H53.5731V35.117H48.3158ZM48.3158 39.1679V37.6488H53.2752V39.1679H48.3158ZM47.2287 33.5681H48.9562V43.9932H47.2287V33.5681ZM60.0148 37.1424H61.8169L59.3595 40.4635L61.9658 43.9932H60.1638L58.5106 41.6401L56.8873 43.9932H55.0406L57.6617 40.4635L55.1895 37.1424H57.0362L58.5106 39.287L60.0148 37.1424ZM62.5033 37.1424H66.3904V38.5572H62.5033V37.1424ZM63.6501 34.7595H65.2436V43.9932H63.6501V34.7595ZM70.9437 44.1421C70.2487 44.1421 69.6331 43.9932 69.0969 43.6953C68.5707 43.3974 68.1637 42.9804 67.8757 42.4443C67.5878 41.9082 67.4438 41.2827 67.4438 40.5678C67.4438 39.843 67.5878 39.2125 67.8757 38.6764C68.1736 38.1402 68.5906 37.7282 69.1267 37.4403C69.6629 37.1424 70.2933 36.9935 71.0181 36.9935C71.7429 36.9935 72.3585 37.1325 72.8649 37.4105C73.3712 37.6885 73.7584 38.0906 74.0265 38.6168C74.3045 39.1331 74.4435 39.7586 74.4435 40.4933C74.4435 40.5728 74.4385 40.6571 74.4286 40.7465C74.4286 40.8359 74.4237 40.9004 74.4137 40.9401H68.397V39.838H73.0436L72.5521 40.5231C72.5819 40.4635 72.6117 40.3841 72.6415 40.2848C72.6812 40.1756 72.701 40.0863 72.701 40.0168C72.701 39.6494 72.6266 39.3317 72.4776 39.0636C72.3386 38.7955 72.1401 38.587 71.8819 38.4381C71.6337 38.2892 71.3408 38.2147 71.0032 38.2147C70.5962 38.2147 70.2487 38.3041 69.9607 38.4828C69.6728 38.6615 69.4544 38.9196 69.3055 39.2572C69.1565 39.5948 69.0771 40.0118 69.0672 40.5082C69.0672 41.0046 69.1416 41.4266 69.2906 41.7741C69.4395 42.1117 69.6579 42.3698 69.9458 42.5486C70.2437 42.7273 70.6011 42.8166 71.0181 42.8166C71.455 42.8166 71.8372 42.7273 72.1649 42.5486C72.4925 42.3698 72.7656 42.0968 72.984 41.7294L74.369 42.2954C74.0116 42.9109 73.5499 43.3726 72.984 43.6804C72.4181 43.9882 71.738 44.1421 70.9437 44.1421ZM80.8525 39.8231C80.8525 39.3168 80.7482 38.9345 80.5397 38.6764C80.3312 38.4182 80.0085 38.2892 79.5717 38.2892C79.2738 38.2892 79.0107 38.3537 78.7824 38.4828C78.554 38.6019 78.3753 38.7806 78.2462 39.0189C78.1171 39.2473 78.0526 39.5154 78.0526 39.8231V43.9932H76.4442V37.1424H78.0526V38.1998C78.271 37.7927 78.549 37.4899 78.8866 37.2913C79.2341 37.0928 79.6461 36.9935 80.1227 36.9935C80.8972 36.9935 81.4879 37.2318 81.895 37.7083C82.3021 38.175 82.5056 38.8204 82.5056 39.6444V43.9932H80.8525V39.8231ZM90.178 32.3767H91.8013V43.9932H90.178V32.3767ZM84.5038 40.5678C84.5038 39.8132 84.6577 39.1728 84.9655 38.6466C85.2733 38.1105 85.6803 37.7034 86.1867 37.4254C86.703 37.1375 87.254 36.9935 87.8398 36.9935C88.4157 36.9935 88.9171 37.1375 89.344 37.4254C89.7809 37.7133 90.1234 38.1254 90.3716 38.6615C90.6298 39.1877 90.7588 39.8231 90.7588 40.5678C90.7588 41.3025 90.6298 41.9379 90.3716 42.4741C90.1234 43.0102 89.7809 43.4223 89.344 43.7102C88.9171 43.9981 88.4157 44.1421 87.8398 44.1421C87.254 44.1421 86.703 44.0031 86.1867 43.7251C85.6803 43.4372 85.2733 43.0251 84.9655 42.489C84.6577 41.9528 84.5038 41.3124 84.5038 40.5678ZM86.1718 40.5678C86.1718 41.0245 86.2661 41.4167 86.4548 41.7443C86.6434 42.072 86.8916 42.3202 87.1994 42.489C87.5171 42.6578 87.8597 42.7422 88.227 42.7422C88.5348 42.7422 88.8376 42.6578 89.1355 42.489C89.4433 42.3202 89.6915 42.0769 89.8801 41.7592C90.0787 41.4316 90.178 41.0344 90.178 40.5678C90.178 40.1011 90.0787 39.709 89.8801 39.3912C89.6915 39.0636 89.4433 38.8154 89.1355 38.6466C88.8376 38.4778 88.5348 38.3934 88.227 38.3934C87.8597 38.3934 87.5171 38.4778 87.1994 38.6466C86.8916 38.8154 86.6434 39.0636 86.4548 39.3912C86.2661 39.7189 86.1718 40.1111 86.1718 40.5678ZM97.239 44.1421C96.544 44.1421 95.9284 43.9932 95.3923 43.6953C94.8661 43.3974 94.459 42.9804 94.1711 42.4443C93.8831 41.9082 93.7392 41.2827 93.7392 40.5678C93.7392 39.843 93.8831 39.2125 94.1711 38.6764C94.4689 38.1402 94.8859 37.7282 95.4221 37.4403C95.9582 37.1424 96.5887 36.9935 97.3135 36.9935C98.0383 36.9935 98.6538 37.1325 99.1602 37.4105C99.6665 37.6885 100.054 38.0906 100.322 38.6168C100.6 39.1331 100.739 39.7586 100.739 40.4933C100.739 40.5728 100.734 40.6571 100.724 40.7465C100.724 40.8359 100.719 40.9004 100.709 40.9401H94.6923V39.838H99.3389L98.8474 40.5231C98.8772 40.4635 98.907 40.3841 98.9368 40.2848C98.9765 40.1756 98.9964 40.0863 98.9964 40.0168C98.9964 39.6494 98.9219 39.3317 98.773 39.0636C98.634 38.7955 98.4354 38.587 98.1773 38.4381C97.929 38.2892 97.6361 38.2147 97.2986 38.2147C96.8915 38.2147 96.544 38.3041 96.2561 38.4828C95.9681 38.6615 95.7497 38.9196 95.6008 39.2572C95.4518 39.5948 95.3724 40.0118 95.3625 40.5082C95.3625 41.0046 95.437 41.4266 95.5859 41.7741C95.7348 42.1117 95.9532 42.3698 96.2412 42.5486C96.539 42.7273 96.8965 42.8166 97.3135 42.8166C97.7503 42.8166 98.1326 42.7273 98.4602 42.5486C98.7879 42.3698 99.0609 42.0968 99.2793 41.7294L100.664 42.2954C100.307 42.9109 99.8453 43.3726 99.2793 43.6804C98.7134 43.9882 98.0333 44.1421 97.239 44.1421ZM107.892 32.3767H109.516V43.9932H107.892V32.3767ZM102.218 40.5678C102.218 39.8132 102.372 39.1728 102.68 38.6466C102.988 38.1105 103.395 37.7034 103.901 37.4254C104.417 37.1375 104.968 36.9935 105.554 36.9935C106.13 36.9935 106.632 37.1375 107.058 37.4254C107.495 37.7133 107.838 38.1254 108.086 38.6615C108.344 39.1877 108.473 39.8231 108.473 40.5678C108.473 41.3025 108.344 41.9379 108.086 42.4741C107.838 43.0102 107.495 43.4223 107.058 43.7102C106.632 43.9981 106.13 44.1421 105.554 44.1421C104.968 44.1421 104.417 44.0031 103.901 43.7251C103.395 43.4372 102.988 43.0251 102.68 42.489C102.372 41.9528 102.218 41.3124 102.218 40.5678ZM103.886 40.5678C103.886 41.0245 103.981 41.4167 104.169 41.7443C104.358 42.072 104.606 42.3202 104.914 42.489C105.232 42.6578 105.574 42.7422 105.941 42.7422C106.249 42.7422 106.552 42.6578 106.85 42.489C107.158 42.3202 107.406 42.0769 107.595 41.7592C107.793 41.4316 107.892 41.0344 107.892 40.5678C107.892 40.1011 107.793 39.709 107.595 39.3912C107.406 39.0636 107.158 38.8154 106.85 38.6466C106.552 38.4778 106.249 38.3934 105.941 38.3934C105.574 38.3934 105.232 38.4778 104.914 38.6466C104.606 38.8154 104.358 39.0636 104.169 39.3912C103.981 39.7189 103.886 40.1111 103.886 40.5678ZM117.039 33.5681H118.797V42.4145H122.937V43.9932H117.039V33.5681ZM124.481 34.417C124.481 34.139 124.58 33.9057 124.779 33.717C124.988 33.5284 125.226 33.4341 125.494 33.4341C125.782 33.4341 126.02 33.5284 126.209 33.717C126.407 33.9057 126.507 34.139 126.507 34.417C126.507 34.6851 126.407 34.9184 126.209 35.117C126.02 35.3056 125.782 35.3999 125.494 35.3999C125.226 35.3999 124.988 35.3056 124.779 35.117C124.58 34.9184 124.481 34.6851 124.481 34.417ZM124.705 37.1424H126.283V43.9932H124.705V37.1424ZM128.396 37.1424H132.328V38.5572H128.396V37.1424ZM132.149 34.1043C132.05 33.9454 131.936 33.8412 131.807 33.7915C131.688 33.7419 131.563 33.717 131.434 33.717C131.285 33.717 131.156 33.7568 131.047 33.8362C130.948 33.9156 130.868 34.0447 130.809 34.2234C130.749 34.4021 130.719 34.6354 130.719 34.9234V43.9932H129.141V34.6106C129.141 34.0745 129.225 33.6327 129.394 33.2851C129.573 32.9277 129.826 32.6596 130.154 32.4809C130.481 32.2923 130.883 32.198 131.36 32.198C131.628 32.198 131.861 32.2327 132.06 32.3022C132.258 32.3717 132.427 32.4561 132.566 32.5554C132.715 32.6547 132.829 32.754 132.909 32.8533L132.149 34.1043ZM137.002 44.1421C136.307 44.1421 135.691 43.9932 135.155 43.6953C134.629 43.3974 134.222 42.9804 133.934 42.4443C133.646 41.9082 133.502 41.2827 133.502 40.5678C133.502 39.843 133.646 39.2125 133.934 38.6764C134.232 38.1402 134.649 37.7282 135.185 37.4403C135.721 37.1424 136.352 36.9935 137.076 36.9935C137.801 36.9935 138.417 37.1325 138.923 37.4105C139.429 37.6885 139.817 38.0906 140.085 38.6168C140.363 39.1331 140.502 39.7586 140.502 40.4933C140.502 40.5728 140.497 40.6571 140.487 40.7465C140.487 40.8359 140.482 40.9004 140.472 40.9401H134.455V39.838H139.102L138.61 40.5231C138.64 40.4635 138.67 40.3841 138.7 40.2848C138.739 40.1756 138.759 40.0863 138.759 40.0168C138.759 39.6494 138.685 39.3317 138.536 39.0636C138.397 38.7955 138.198 38.587 137.94 38.4381C137.692 38.2892 137.399 38.2147 137.062 38.2147C136.654 38.2147 136.307 38.3041 136.019 38.4828C135.731 38.6615 135.513 38.9196 135.364 39.2572C135.215 39.5948 135.135 40.0118 135.125 40.5082C135.125 41.0046 135.2 41.4266 135.349 41.7741C135.498 42.1117 135.716 42.3698 136.004 42.5486C136.302 42.7273 136.659 42.8166 137.076 42.8166C137.513 42.8166 137.896 42.7273 138.223 42.5486C138.551 42.3698 138.824 42.0968 139.042 41.7294L140.427 42.2954C140.07 42.9109 139.608 43.3726 139.042 43.6804C138.476 43.9882 137.796 44.1421 137.002 44.1421ZM147.656 43.2336C147.656 42.9457 147.755 42.7024 147.954 42.5039C148.163 42.2954 148.411 42.1911 148.699 42.1911C149.007 42.1911 149.26 42.2954 149.458 42.5039C149.657 42.7024 149.756 42.9457 149.756 43.2336C149.756 43.5116 149.657 43.7549 149.458 43.9634C149.26 44.1719 149.007 44.2761 148.699 44.2761C148.411 44.2761 148.163 44.1719 147.954 43.9634C147.755 43.7549 147.656 43.5116 147.656 43.2336ZM152.717 43.2336C152.717 42.9457 152.817 42.7024 153.015 42.5039C153.224 42.2954 153.472 42.1911 153.76 42.1911C154.068 42.1911 154.321 42.2954 154.52 42.5039C154.718 42.7024 154.817 42.9457 154.817 43.2336C154.817 43.5116 154.718 43.7549 154.52 43.9634C154.321 44.1719 154.068 44.2761 153.76 44.2761C153.472 44.2761 153.224 44.1719 153.015 43.9634C152.817 43.7549 152.717 43.5116 152.717 43.2336ZM157.779 43.2336C157.779 42.9457 157.878 42.7024 158.077 42.5039C158.285 42.2954 158.533 42.1911 158.821 42.1911C159.129 42.1911 159.382 42.2954 159.581 42.5039C159.779 42.7024 159.879 42.9457 159.879 43.2336C159.879 43.5116 159.779 43.7549 159.581 43.9634C159.382 44.1719 159.129 44.2761 158.821 44.2761C158.533 44.2761 158.285 44.1719 158.077 43.9634C157.878 43.7549 157.779 43.5116 157.779 43.2336Z" fill="black"/>
</svg>
