<svg width="127" height="34" viewBox="0 0 127 34" fill="none" xmlns="http://www.w3.org/2000/svg">
<path d="M7.0343 17.8105L8 16.201L6 15.201L4.7872 16.717C4.27101 17.3622 3.92868 18.1289 3.79284 18.944C3.60382 20.0781 3.8249 21.2425 4.41646 22.2284L5 23.201L4.5 24.201L8.5 26.201L8 21.701L7 22.201L6.61194 20.6487C6.53759 20.3514 6.5 20.046 6.5 19.7395C6.5 19.0599 6.68468 18.3932 7.0343 17.8105Z" fill="#AAFD33" stroke="#AAFD33" stroke-width="0.7"/>
<path d="M12.9823 24.6242L11.1082 24.7286L11.4034 26.9451L13.3388 27.0977C14.1625 27.1627 14.9892 27.0156 15.7399 26.6704C16.7846 26.1902 17.6241 25.3535 18.1079 24.3105L18.5852 23.2816L19.6934 23.134L19.103 18.701L15.6597 21.641L16.6349 22.1879L15.5681 23.3804C15.3638 23.6089 15.1322 23.8114 14.8785 23.9835C14.3162 24.365 13.6607 24.5865 12.9823 24.6242Z" fill="#AAFD33" stroke="#AAFD33" stroke-width="0.7"/>
<path d="M12 15.701V14.701L13.4136 14.9837C14.122 15.1254 14.7726 15.4736 15.2834 15.9844C15.7523 16.4533 16.085 17.0408 16.2458 17.6842L16.5 18.701L18.5 17.201V17.1093C18.5 16.5171 18.3247 15.938 17.9961 15.4452L17.6648 14.9482C17.5552 14.7838 17.4297 14.6307 17.29 14.491L16 13.201C15.0219 12.5489 13.8727 12.201 12.6972 12.201H12V11.201L8.5 13.701L12 15.701Z" fill="#AAFD33" stroke="#AAFD33" stroke-width="0.7"/>
<path d="M15.5 3.6982V4.70105H19.0581C19.9695 4.70105 20.8314 5.11531 21.4007 5.82694L21.8426 6.37924C22.2682 6.91118 22.5 7.57212 22.5 8.25335V28.8502C22.5 30.02 21.9682 31.1264 21.0548 31.8572C20.372 32.4034 19.5236 32.701 18.6492 32.701H4.92705C3.43959 32.701 2.0798 31.8606 1.41459 30.5302C1.14194 29.9849 1 29.3836 1 28.7739V7.31903C1 6.91259 1.09463 6.51173 1.2764 6.1482C1.71987 5.26129 2.62637 4.70105 3.61798 4.70105H7.5V3.85238C7.5 3.42764 7.62572 3.0124 7.86132 2.659C8.26033 2.06049 8.93206 1.70099 9.65139 1.70099H13.5028C13.8293 1.70099 14.1508 1.78103 14.4392 1.9341C15.0919 2.28059 15.5 2.95919 15.5 3.6982Z" stroke="#AAFD33" stroke-width="1.5"/>
<path d="M33.6484 10.5218V9.35693H35.4272C35.7315 9.35693 35.9887 9.30971 36.1986 9.21525C36.4189 9.1208 36.5869 8.98962 36.7023 8.82171C36.8177 8.6433 36.8755 8.42816 36.8755 8.17629C36.8755 7.79849 36.7495 7.51513 36.4977 7.32623C36.2458 7.13733 35.889 7.04288 35.4272 7.04288H34.3253V13.9378H35.6791C36.0254 13.9378 36.335 13.8958 36.6078 13.8119C36.8807 13.7174 37.0958 13.5705 37.2533 13.3711C37.4212 13.1612 37.5051 12.8779 37.5051 12.521C37.5051 12.2902 37.4579 12.0908 37.3635 11.9229C37.269 11.7549 37.1378 11.6185 36.9699 11.5136C36.802 11.4086 36.6078 11.3352 36.3875 11.2932C36.1776 11.2407 35.9414 11.2145 35.6791 11.2145H33.6484V9.76622H35.9782C36.5134 9.76622 37.0329 9.82394 37.5366 9.93938C38.0404 10.0548 38.4969 10.2437 38.9062 10.5061C39.3154 10.758 39.6408 11.0833 39.8822 11.4821C40.134 11.8704 40.26 12.3426 40.26 12.8989C40.26 13.6335 40.0815 14.2264 39.7247 14.6777C39.3784 15.1289 38.8852 15.4648 38.245 15.6852C37.6048 15.8951 36.8492 16 35.9782 16H31.6649V4.98069H35.7106C36.4767 4.98069 37.1483 5.08564 37.7255 5.29553C38.3132 5.49493 38.775 5.80452 39.1108 6.2243C39.4571 6.63359 39.6303 7.15307 39.6303 7.78275C39.6303 8.35995 39.4571 8.85319 39.1108 9.26248C38.775 9.67177 38.3132 9.98661 37.7255 10.207C37.1483 10.4169 36.4767 10.5218 35.7106 10.5218H33.6484ZM43.9311 13.8748L44.12 11.8441H49.5824L49.7555 13.8748H43.9311ZM46.8118 9.02635L45.2691 12.584L45.395 13.1665L44.0255 16H41.0188L46.8118 4.28805L52.6206 16H49.5981L48.2758 13.2767L48.3703 12.5998L46.8118 9.02635ZM51.878 7.35771V4.98069H60.599V7.35771H57.5608V16H54.9005V7.35771H51.878ZM61.4902 7.35771V4.98069H70.2112V7.35771H67.173V16H64.5126V7.35771H61.4902ZM74.4826 11.0098H77.2374L80.6849 16H77.568L74.4826 11.0098ZM71.7277 4.98069H74.3881V16H71.7277V4.98069ZM73.3964 7.23178V4.98069H75.7419C76.6864 4.98069 77.4735 5.13286 78.1032 5.43721C78.7329 5.74155 79.2104 6.16658 79.5357 6.7123C79.861 7.24752 80.0237 7.87195 80.0237 8.58558C80.0237 9.28872 79.861 9.91314 79.5357 10.4589C79.2104 10.9941 78.7329 11.4139 78.1032 11.7182C77.4735 12.0226 76.6864 12.1747 75.7419 12.1747H73.3964V10.1125H75.553C75.9098 10.1125 76.2142 10.0601 76.466 9.95512C76.7284 9.83968 76.9278 9.67702 77.0642 9.46712C77.2007 9.24674 77.2689 8.98437 77.2689 8.68003C77.2689 8.37569 77.2007 8.11857 77.0642 7.90868C76.9278 7.68829 76.7284 7.52038 76.466 7.40494C76.2142 7.2895 75.9098 7.23178 75.553 7.23178H73.3964ZM83.9946 16V13.8119H89.5515V16H83.9946ZM83.9946 7.16881V4.98069H89.5515V7.16881H83.9946ZM83.9946 11.2774V9.13655H89.2367V11.2774H83.9946ZM82.2315 4.98069H84.7817V16H82.2315V4.98069ZM97.4906 12.0173V9.97086H103.063C103.116 10.8524 103.027 11.6762 102.796 12.4423C102.565 13.2084 102.208 13.8853 101.725 14.473C101.242 15.0607 100.639 15.5225 99.9149 15.8583C99.1907 16.1837 98.3617 16.3463 97.4277 16.3463C96.5461 16.3463 95.738 16.2099 95.0034 15.937C94.2688 15.6537 93.6339 15.2549 93.0986 14.7407C92.5634 14.2159 92.1436 13.5967 91.8393 12.8831C91.5454 12.159 91.3985 11.3614 91.3985 10.4903C91.3985 9.6193 91.5507 8.8322 91.855 8.12907C92.1594 7.41543 92.5897 6.80675 93.1459 6.30301C93.7021 5.79927 94.3527 5.41097 95.0979 5.13811C95.843 4.86525 96.6511 4.72882 97.5221 4.72882C98.2987 4.72882 98.9966 4.83902 99.6158 5.0594C100.235 5.27979 100.781 5.58938 101.253 5.98817C101.736 6.37647 102.15 6.82774 102.497 7.34197L100.135 8.56984C99.8834 8.12907 99.5423 7.767 99.112 7.48365C98.6923 7.1898 98.1623 7.04288 97.5221 7.04288C96.9134 7.04288 96.352 7.17931 95.8377 7.45217C95.334 7.72502 94.9299 8.11857 94.6256 8.63281C94.3318 9.13655 94.1848 9.75573 94.1848 10.4903C94.1848 11.2145 94.3265 11.8441 94.6099 12.3794C94.9037 12.9041 95.2973 13.3134 95.7905 13.6072C96.2942 13.8906 96.8714 14.0323 97.5221 14.0323C97.9209 14.0323 98.283 13.985 98.6083 13.8906C98.9336 13.7856 99.2117 13.644 99.4426 13.4656C99.6735 13.2767 99.8676 13.0615 100.025 12.8201C100.193 12.5683 100.324 12.3007 100.419 12.0173H97.4906ZM106.924 16V13.8119H112.481V16H106.924ZM106.924 7.16881V4.98069H112.481V7.16881H106.924ZM106.924 11.2774V9.13655H112.166V11.2774H106.924ZM105.161 4.98069H107.711V16H105.161V4.98069ZM122.561 4.98069H125.127V16.551L117.508 9.7977V16H114.957V4.42973L122.561 11.183V4.98069Z" fill="white"/>
<path d="M32.0054 30.0703V29.0334H35.5248V30.0703H32.0054ZM32.0054 24.1283V23.0914H35.5248V24.1283H32.0054ZM32.0054 26.8401V25.8232H35.3254V26.8401H32.0054ZM31.2776 23.0914H32.4342V30.0703H31.2776V23.0914ZM39.8372 25.4842H41.0435L39.3985 27.7075L41.1432 30.0703H39.9369L38.8302 28.4951L37.7435 30.0703H36.5072L38.2619 27.7075L36.6069 25.4842H37.8432L38.8302 26.9198L39.8372 25.4842ZM41.5031 25.4842H44.1052V26.4313H41.5031V25.4842ZM42.2707 23.889H43.3375V30.0703H42.2707V23.889ZM47.1533 30.17C46.6881 30.17 46.276 30.0703 45.917 29.8709C45.5648 29.6715 45.2923 29.3924 45.0995 29.0334C44.9068 28.6745 44.8104 28.2558 44.8104 27.7772C44.8104 27.292 44.9068 26.87 45.0995 26.5111C45.2989 26.1522 45.5781 25.8763 45.937 25.6836C46.2959 25.4842 46.718 25.3845 47.2032 25.3845C47.6884 25.3845 48.1004 25.4775 48.4394 25.6636C48.7784 25.8497 49.0376 26.1189 49.2171 26.4712C49.4032 26.8168 49.4962 27.2356 49.4962 27.7274C49.4962 27.7806 49.4929 27.8371 49.4863 27.8969C49.4863 27.9567 49.4829 27.9999 49.4763 28.0265H45.4485V27.2887H48.5591L48.2301 27.7473C48.25 27.7075 48.2699 27.6543 48.2899 27.5878C48.3165 27.5147 48.3298 27.4549 48.3298 27.4084C48.3298 27.1624 48.2799 26.9497 48.1802 26.7703C48.0872 26.5908 47.9542 26.4513 47.7814 26.3516C47.6152 26.2519 47.4192 26.202 47.1932 26.202C46.9207 26.202 46.6881 26.2618 46.4953 26.3815C46.3025 26.5011 46.1563 26.6739 46.0566 26.8999C45.9569 27.1259 45.9038 27.405 45.8971 27.7374C45.8971 28.0697 45.947 28.3522 46.0467 28.5848C46.1464 28.8108 46.2926 28.9836 46.4853 29.1032C46.6847 29.2229 46.924 29.2827 47.2032 29.2827C47.4956 29.2827 47.7515 29.2229 47.9708 29.1032C48.1902 28.9836 48.373 28.8008 48.5192 28.5549L49.4464 28.9337C49.2071 29.3458 48.898 29.6549 48.5192 29.8609C48.1403 30.067 47.685 30.17 47.1533 30.17ZM53.7866 27.2788C53.7866 26.9398 53.7168 26.6839 53.5772 26.5111C53.4377 26.3383 53.2217 26.2519 52.9292 26.2519C52.7298 26.2519 52.5537 26.2951 52.4008 26.3815C52.2479 26.4612 52.1283 26.5809 52.0419 26.7404C51.9555 26.8933 51.9123 27.0727 51.9123 27.2788V30.0703H50.8355V25.4842H51.9123V26.192C52.0585 25.9195 52.2446 25.7168 52.4706 25.5839C52.7032 25.4509 52.9791 25.3845 53.2981 25.3845C53.8165 25.3845 54.212 25.544 54.4845 25.863C54.757 26.1754 54.8933 26.6075 54.8933 27.1591V30.0703H53.7866V27.2788ZM60.0294 22.2938H61.1162V30.0703H60.0294V22.2938ZM56.2309 27.7772C56.2309 27.2721 56.334 26.8434 56.54 26.4911C56.746 26.1322 57.0186 25.8597 57.3575 25.6736C57.7031 25.4809 58.072 25.3845 58.4642 25.3845C58.8497 25.3845 59.1853 25.4809 59.4711 25.6736C59.7636 25.8664 59.9929 26.1422 60.1591 26.5011C60.3319 26.8534 60.4183 27.2788 60.4183 27.7772C60.4183 28.2691 60.3319 28.6945 60.1591 29.0534C59.9929 29.4123 59.7636 29.6881 59.4711 29.8809C59.1853 30.0736 58.8497 30.17 58.4642 30.17C58.072 30.17 57.7031 30.077 57.3575 29.8909C57.0186 29.6981 56.746 29.4223 56.54 29.0634C56.334 28.7044 56.2309 28.2757 56.2309 27.7772ZM57.3476 27.7772C57.3476 28.083 57.4107 28.3455 57.537 28.5649C57.6633 28.7842 57.8294 28.9504 58.0355 29.0634C58.2482 29.1763 58.4775 29.2328 58.7234 29.2328C58.9294 29.2328 59.1322 29.1763 59.3316 29.0634C59.5376 28.9504 59.7038 28.7875 59.8301 28.5748C59.963 28.3555 60.0294 28.0896 60.0294 27.7772C60.0294 27.4649 59.963 27.2023 59.8301 26.9896C59.7038 26.7703 59.5376 26.6041 59.3316 26.4911C59.1322 26.3781 58.9294 26.3216 58.7234 26.3216C58.4775 26.3216 58.2482 26.3781 58.0355 26.4911C57.8294 26.6041 57.6633 26.7703 57.537 26.9896C57.4107 27.209 57.3476 27.4715 57.3476 27.7772ZM64.7563 30.17C64.2911 30.17 63.879 30.0703 63.5201 29.8709C63.1678 29.6715 62.8953 29.3924 62.7025 29.0334C62.5098 28.6745 62.4134 28.2558 62.4134 27.7772C62.4134 27.292 62.5098 26.87 62.7025 26.5111C62.9019 26.1522 63.1811 25.8763 63.54 25.6836C63.8989 25.4842 64.321 25.3845 64.8062 25.3845C65.2914 25.3845 65.7035 25.4775 66.0424 25.6636C66.3814 25.8497 66.6406 26.1189 66.8201 26.4712C67.0062 26.8168 67.0992 27.2356 67.0992 27.7274C67.0992 27.7806 67.0959 27.8371 67.0893 27.8969C67.0893 27.9567 67.0859 27.9999 67.0793 28.0265H63.0515V27.2887H66.1621L65.8331 27.7473C65.853 27.7075 65.8729 27.6543 65.8929 27.5878C65.9195 27.5147 65.9328 27.4549 65.9328 27.4084C65.9328 27.1624 65.8829 26.9497 65.7832 26.7703C65.6902 26.5908 65.5572 26.4513 65.3844 26.3516C65.2183 26.2519 65.0222 26.202 64.7962 26.202C64.5237 26.202 64.2911 26.2618 64.0983 26.3815C63.9056 26.5011 63.7593 26.6739 63.6596 26.8999C63.5599 27.1259 63.5068 27.405 63.5001 27.7374C63.5001 28.0697 63.55 28.3522 63.6497 28.5848C63.7494 28.8108 63.8956 28.9836 64.0883 29.1032C64.2877 29.2229 64.527 29.2827 64.8062 29.2827C65.0986 29.2827 65.3545 29.2229 65.5739 29.1032C65.7932 28.9836 65.976 28.8008 66.1222 28.5549L67.0494 28.9337C66.8101 29.3458 66.501 29.6549 66.1222 29.8609C65.7433 30.067 65.2881 30.17 64.7563 30.17ZM71.8881 22.2938H72.9748V30.0703H71.8881V22.2938ZM68.0896 27.7772C68.0896 27.2721 68.1926 26.8434 68.3987 26.4911C68.6047 26.1322 68.8772 25.8597 69.2162 25.6736C69.5618 25.4809 69.9307 25.3845 70.3229 25.3845C70.7084 25.3845 71.044 25.4809 71.3298 25.6736C71.6223 25.8664 71.8516 26.1422 72.0177 26.5011C72.1905 26.8534 72.2769 27.2788 72.2769 27.7772C72.2769 28.2691 72.1905 28.6945 72.0177 29.0534C71.8516 29.4123 71.6223 29.6881 71.3298 29.8809C71.044 30.0736 70.7084 30.17 70.3229 30.17C69.9307 30.17 69.5618 30.077 69.2162 29.8909C68.8772 29.6981 68.6047 29.4223 68.3987 29.0634C68.1926 28.7044 68.0896 28.2757 68.0896 27.7772ZM69.2062 27.7772C69.2062 28.083 69.2694 28.3455 69.3957 28.5649C69.5219 28.7842 69.6881 28.9504 69.8941 29.0634C70.1068 29.1763 70.3361 29.2328 70.5821 29.2328C70.7881 29.2328 70.9908 29.1763 71.1902 29.0634C71.3963 28.9504 71.5624 28.7875 71.6887 28.5748C71.8217 28.3555 71.8881 28.0896 71.8881 27.7772C71.8881 27.4649 71.8217 27.2023 71.6887 26.9896C71.5624 26.7703 71.3963 26.6041 71.1902 26.4911C70.9908 26.3781 70.7881 26.3216 70.5821 26.3216C70.3361 26.3216 70.1068 26.3781 69.8941 26.4911C69.6881 26.6041 69.5219 26.7703 69.3957 26.9896C69.2694 27.209 69.2062 27.4715 69.2062 27.7772ZM78.0113 23.0914H79.1878V29.0135H81.9594V30.0703H78.0113V23.0914ZM82.9932 23.6597C82.9932 23.4736 83.0597 23.3174 83.1926 23.1911C83.3322 23.0648 83.4917 23.0017 83.6712 23.0017C83.8639 23.0017 84.0234 23.0648 84.1497 23.1911C84.2826 23.3174 84.3491 23.4736 84.3491 23.6597C84.3491 23.8392 84.2826 23.9954 84.1497 24.1283C84.0234 24.2546 83.8639 24.3177 83.6712 24.3177C83.4917 24.3177 83.3322 24.2546 83.1926 24.1283C83.0597 23.9954 82.9932 23.8392 82.9932 23.6597ZM83.1428 25.4842H84.1996V30.0703H83.1428V25.4842ZM85.614 25.4842H88.2461V26.4313H85.614V25.4842ZM88.1264 23.4503C88.06 23.344 87.9835 23.2742 87.8971 23.241C87.8174 23.2077 87.7343 23.1911 87.6479 23.1911C87.5482 23.1911 87.4618 23.2177 87.3887 23.2709C87.3222 23.324 87.269 23.4105 87.2291 23.5301C87.1893 23.6497 87.1693 23.8059 87.1693 23.9987V30.0703H86.1125V23.7893C86.1125 23.4304 86.169 23.1346 86.282 22.902C86.4016 22.6627 86.5711 22.4833 86.7905 22.3636C87.0098 22.2373 87.279 22.1742 87.598 22.1742C87.7775 22.1742 87.9337 22.1975 88.0666 22.244C88.1995 22.2905 88.3125 22.347 88.4056 22.4135C88.5053 22.4799 88.5817 22.5464 88.6349 22.6129L88.1264 23.4503ZM91.375 30.17C90.9098 30.17 90.4977 30.0703 90.1388 29.8709C89.7865 29.6715 89.514 29.3924 89.3213 29.0334C89.1285 28.6745 89.0321 28.2558 89.0321 27.7772C89.0321 27.292 89.1285 26.87 89.3213 26.5111C89.5207 26.1522 89.7998 25.8763 90.1587 25.6836C90.5176 25.4842 90.9397 25.3845 91.4249 25.3845C91.9101 25.3845 92.3222 25.4775 92.6612 25.6636C93.0001 25.8497 93.2593 26.1189 93.4388 26.4712C93.6249 26.8168 93.718 27.2356 93.718 27.7274C93.718 27.7806 93.7146 27.8371 93.708 27.8969C93.708 27.9567 93.7047 27.9999 93.698 28.0265H89.6702V27.2887H92.7808L92.4518 27.7473C92.4717 27.7075 92.4917 27.6543 92.5116 27.5878C92.5382 27.5147 92.5515 27.4549 92.5515 27.4084C92.5515 27.1624 92.5016 26.9497 92.4019 26.7703C92.3089 26.5908 92.176 26.4513 92.0031 26.3516C91.837 26.2519 91.6409 26.202 91.4149 26.202C91.1424 26.202 90.9098 26.2618 90.717 26.3815C90.5243 26.5011 90.3781 26.6739 90.2784 26.8999C90.1787 27.1259 90.1255 27.405 90.1188 27.7374C90.1188 28.0697 90.1687 28.3522 90.2684 28.5848C90.3681 28.8108 90.5143 28.9836 90.7071 29.1032C90.9065 29.2229 91.1457 29.2827 91.4249 29.2827C91.7173 29.2827 91.9732 29.2229 92.1926 29.1032C92.4119 28.9836 92.5947 28.8008 92.7409 28.5549L93.6681 28.9337C93.4288 29.3458 93.1198 29.6549 92.7409 29.8609C92.3621 30.067 91.9068 30.17 91.375 30.17ZM98.5074 29.5619C98.5074 29.3691 98.5738 29.2063 98.7068 29.0733C98.8464 28.9337 99.0125 28.864 99.2053 28.864C99.4113 28.864 99.5808 28.9337 99.7137 29.0733C99.8467 29.2063 99.9131 29.3691 99.9131 29.5619C99.9131 29.748 99.8467 29.9108 99.7137 30.0504C99.5808 30.19 99.4113 30.2597 99.2053 30.2597C99.0125 30.2597 98.8464 30.19 98.7068 30.0504C98.5738 29.9108 98.5074 29.748 98.5074 29.5619ZM101.896 29.5619C101.896 29.3691 101.962 29.2063 102.095 29.0733C102.235 28.9337 102.401 28.864 102.593 28.864C102.8 28.864 102.969 28.9337 103.102 29.0733C103.235 29.2063 103.301 29.3691 103.301 29.5619C103.301 29.748 103.235 29.9108 103.102 30.0504C102.969 30.19 102.8 30.2597 102.593 30.2597C102.401 30.2597 102.235 30.19 102.095 30.0504C101.962 29.9108 101.896 29.748 101.896 29.5619ZM105.284 29.5619C105.284 29.3691 105.35 29.2063 105.483 29.0733C105.623 28.9337 105.789 28.864 105.982 28.864C106.188 28.864 106.357 28.9337 106.49 29.0733C106.623 29.2063 106.69 29.3691 106.69 29.5619C106.69 29.748 106.623 29.9108 106.49 30.0504C106.357 30.19 106.188 30.2597 105.982 30.2597C105.789 30.2597 105.623 30.19 105.483 30.0504C105.35 29.9108 105.284 29.748 105.284 29.5619Z" fill="white"/>
</svg>
